<svg width="1051" height="1038" viewBox="0 0 1051 1038" fill="none" xmlns="http://www.w3.org/2000/svg">
<path fill-rule="evenodd" clip-rule="evenodd" d="M1051 519C1051 805.636 815.723 1038 525.5 1038C235.274 1038 0 805.636 0 519C0 232.364 235.274 0 525.5 0C815.723 0 1051 232.364 1051 519ZM489.065 714.144C591.615 714.144 674.742 632.042 674.742 530.764C674.742 429.486 591.615 347.384 489.065 347.384C386.516 347.384 303.389 429.486 303.389 530.764C303.389 632.042 386.516 714.144 489.065 714.144ZM243.911 536.992C247.256 667.877 355.735 772.964 489.065 772.964C624.504 772.964 734.299 664.528 734.299 530.764C734.299 397 624.504 288.564 489.065 288.564C414.865 288.564 348.357 321.112 303.389 372.541V135.632H243.131V536.992H243.911Z" fill="#406C80" fill-opacity="0.2"/>
</svg>
